<?xml version="1.0" encoding="iso-8859-1"?>
<svg version="1.1" id="Capa_1" xmlns="http://www.w3.org/2000/svg" xmlns:xlink="http://www.w3.org/1999/xlink" x="0px" y="0px"
	 viewBox="0 0 490 490" style="enable-background:new 0 0 490 490;" xml:space="preserve">
<g>
	<path fill="#FFFF" d="M420.931,104.275h-44.166V0H113.236v104.275H69.069C30.982,104.275,0,136.499,0,176.104v123.732
		c0,39.615,30.982,71.839,69.069,71.839h33.506V490h284.839V371.675h33.516c38.089,0,69.069-32.224,69.069-71.839V176.104
		C490,136.499,459.02,104.275,420.931,104.275z M134.087,20.852h221.827v83.424H134.087V20.852z M366.564,469.149H123.427V290.204
		h243.137V469.149z M469.149,299.836c0,28.109-21.635,50.987-48.218,50.987h-33.516v-81.47H102.576v81.47H69.069
		c-26.583,0-48.218-22.878-48.218-50.987V176.104c0-28.11,21.635-50.978,48.218-50.978h351.862
		c26.583,0,48.218,22.867,48.218,50.978V299.836z"/>
	<rect fill="#FFFF" x="173.997" y="337.975" width="141.997" height="20.852"/>
	<rect fill="#FFFF" x="173.997" y="395.508" width="141.997" height="20.852"/>
	<rect fill="#FFFF" x="366.34" y="173.354" width="31.124" height="20.852"/>
</g>
<g>
</g>
<g>
</g>
<g>
</g>
<g>
</g>
<g>
</g>
<g>
</g>
<g>
</g>
<g>
</g>
<g>
</g>
<g>
</g>
<g>
</g>
<g>
</g>
<g>
</g>
<g>
</g>
<g>
</g>
</svg>
